<svg height="512" viewBox="0 0 256 256" width="512" xmlns="http://www.w3.org/2000/svg"><path d="m128 223a95 95 0 1 1 95-95 2.5 2.5 0 0 1 -5 0 90 90 0 1 0 -90 90 2.5 2.5 0 0 1 0 5z" fill="#a58bc9"/><g fill="#846f75"><path d="m145.448 86.053a7.508 7.508 0 0 0 -9.8 4.045l-29.142 70.042a7.5 7.5 0 1 0 13.85 5.761l29.138-70.042a7.51 7.51 0 0 0 -4.046-9.806zm-.571 7.885-29.137 70.042a2.537 2.537 0 0 1 -3.269 1.349 2.5 2.5 0 0 1 -1.348-3.268l29.137-70.042a2.507 2.507 0 0 1 2.313-1.54 2.47 2.47 0 0 1 .955.191 2.5 2.5 0 0 1 1.349 3.268z"/><path d="m151.656 150.843a7.5 7.5 0 0 0 12.8 5.3l22.844-22.843a7.5 7.5 0 0 0 0-10.607l-22.84-22.84a7.5 7.5 0 1 0 -10.606 10.606l17.54 17.541-17.54 17.539a7.452 7.452 0 0 0 -2.198 5.304zm5.733-1.768 19.311-19.308a2.5 2.5 0 0 0 0-3.535l-19.307-19.308a2.5 2.5 0 0 1 3.536-3.536l22.843 22.844a2.5 2.5 0 0 1 0 3.536l-22.847 22.842a2.559 2.559 0 0 1 -3.536 0 2.5 2.5 0 0 1 0-3.535z"/><path d="m84.607 128 17.539-17.541a7.5 7.5 0 0 0 -10.606-10.606l-22.84 22.847a7.5 7.5 0 0 0 0 10.607l22.844 22.843a7.5 7.5 0 1 0 10.605-10.606zm14 24.61a2.563 2.563 0 0 1 -3.537 0l-22.838-22.842a2.5 2.5 0 0 1 0-3.537l22.843-22.842a2.5 2.5 0 1 1 3.536 3.535l-19.311 19.308a2.5 2.5 0 0 0 0 3.535l19.307 19.308a2.5 2.5 0 0 1 .005 3.535z"/><path d="m234.959 148.535-4.542-4.541a15.36 15.36 0 0 0 -21.7 0l-54.655 54.656a14.437 14.437 0 0 0 -3.524 5.767l-7.985 24.8a5.706 5.706 0 0 0 7.187 7.187l24.8-7.985a14.448 14.448 0 0 0 5.767-3.524l54.656-54.656a15.363 15.363 0 0 0 -.004-21.704zm-56.424 71.053-19.171-19.171 42.3-42.295 19.171 19.171zm-30.328 12.053a.711.711 0 0 1 -.895-.895l2-6.2 5.1 5.1zm24.8-7.986-13.248 4.267-8.724-8.724 4.267-13.249a9.321 9.321 0 0 1 .781-1.746l18.671 18.67a9.334 9.334 0 0 1 -1.754.782zm58.417-56.955-7.058 7.058-19.166-19.171 7.058-7.058a10.357 10.357 0 0 1 14.629 0l4.542 4.541a10.356 10.356 0 0 1 -.005 14.63z"/></g><path d="m128 209.5a81.5 81.5 0 1 1 81.5-81.5 2.5 2.5 0 0 1 -5 0 76.5 76.5 0 1 0 -76.5 76.5 2.5 2.5 0 0 1 0 5z" fill="#ebe7f2"/></svg>