<svg id="Layer_5" enable-background="new 0 0 64 64" height="512" viewBox="0 0 64 64" width="512" xmlns="http://www.w3.org/2000/svg"><path d="m58 62h-56v-36h56z" fill="#e6e9ed"/><path d="m2 18h24v8h-24z" fill="#b4dd7f"/><path d="m58 2h-28c-2.21 0-4 1.79-4 4v12 8c0 2.21 1.79 4 4 4h28c2.21 0 4-1.79 4-4v-20c0-2.21-1.79-4-4-4z" fill="#fcd770"/><path d="m48.747 6.335-1.494 1.33 7.409 8.335-7.409 8.335 1.494 1.33 8.591-9.665z"/><path d="m39.253 6.335-8.591 9.665 8.591 9.665 1.494-1.33-7.409-8.335 7.409-8.335z"/><path d="m32.955 15h22.091v2h-22.091z" transform="matrix(.09 -.996 .996 .09 24.092 58.375)"/><path d="m21.253 39.664 7.409 8.336-7.409 8.336 1.494 1.328 8.591-9.664-8.591-9.664z"/><path d="m13.253 38.336-8.591 9.664 8.591 9.664 1.494-1.328-7.409-8.336 7.409-8.336z"/><path d="m6.955 47h22.091v2h-22.091z" transform="matrix(.091 -.996 .996 .091 -31.436 61.567)"/><path d="m5 21h2v2h-2z"/><path d="m9 21h2v2h-2z"/><path d="m13 21h2v2h-2z"/><path d="m21 29h2v2h-2z"/><path d="m17 29h2v2h-2z"/><path d="m5 29h10v2h-10z"/><path d="m41 39h2v8h-2z"/><path d="m53 39h2v8h-2z"/><path d="m39 45v-4c0-1.103-.897-2-2-2h-2c-1.103 0-2 .897-2 2v4c0 1.103.897 2 2 2h2c1.103 0 2-.897 2-2zm-4-4h2l.002 4h-2.002z"/><path d="m51 45v-4c0-1.103-.897-2-2-2h-2c-1.103 0-2 .897-2 2v4c0 1.103.897 2 2 2h2c1.103 0 2-.897 2-2zm-4-4h2l.002 4h-2.002z"/><path d="m33 49h2v8h-2z"/><path d="m41 49h-2c-1.103 0-2 .897-2 2v4c0 1.103.897 2 2 2h2c1.103 0 2-.897 2-2v-4c0-1.103-.897-2-2-2zm0 6h-2v-4h2z"/><path d="m45 49h2v8h-2z"/><path d="m53 49h-2c-1.103 0-2 .897-2 2v4c0 1.103.897 2 2 2h2c1.103 0 2-.897 2-2v-4c0-1.103-.897-2-2-2zm0 6h-2v-4h2z"/><path d="m58 1h-28c-2.757 0-5 2.243-5 5v11h-24v46h58v-32.101c2.279-.465 4-2.484 4-4.899v-20c0-2.757-2.243-5-5-5zm-33 18v6h-22v-6zm-22 42v-34h22.101c.465 2.279 2.484 4 4.899 4h27v30zm58-35c0 1.654-1.346 3-3 3h-28c-1.654 0-3-1.346-3-3v-20c0-1.654 1.346-3 3-3h28c1.654 0 3 1.346 3 3z"/><circle cx="58" cy="26" r="1"/><circle cx="58" cy="6" r="1"/><circle cx="30" cy="26" r="1"/><circle cx="30" cy="6" r="1"/></svg>