<svg height="512pt" viewBox="-32 0 512 512" width="512pt" xmlns="http://www.w3.org/2000/svg"><path d="m96 264h64v16h-64zm0 0"/><path d="m120 240h16v64h-16zm0 0"/><path d="m352 264h16v16h-16zm0 0"/><path d="m272 264h16v16h-16zm0 0"/><path d="m312 224h16v16h-16zm0 0"/><path d="m312 304h16v16h-16zm0 0"/><path d="m282.34375 138.339844 72-72 11.316406 11.3125-72.003906 72.003906zm0 0"/><path d="m282.34375 77.652344 11.3125-11.3125 72.003906 72-11.316406 11.316406zm0 0"/><path d="m104 147.3125-29.65625-29.65625 11.3125-11.3125 18.34375 18.34375 58.34375-58.34375 11.3125 11.3125zm0 0"/><path d="m416 64h-16v-16h-16v-16h32zm0 0"/><path d="m448 0h-392c-30.914062.0351562-55.9648438 25.085938-56 56v400c.0351562 30.914062 25.085938 55.964844 56 56h392v-16h-392c-22.089844 0-40-17.910156-40-40s17.910156-40 40-40h392zm-16 400h-376c-15.050781-.019531-29.476562 6.039062-40 16.800781v-360.800781c.027344-22.082031 17.917969-39.972656 40-40h376zm0 0"/><path d="m48 464h384v16h-384zm0 0"/><path d="m48 432h384v16h-384zm0 0"/><path d="m128 360c29.726562-.082031 57.414062-15.113281 73.671875-40h44.65625c22.976563 35.308594 67.757813 49.378906 106.800781 33.558594 39.042969-15.816406 61.402344-57.089844 53.324219-98.433594s-44.328125-71.164062-86.453125-71.125h-88v-96h-16v96h-88c-48.601562 0-88 39.398438-88 88s39.398438 88 88 88zm0-160h192c34.949219-.03125 64.875 25.039062 70.964844 59.453125s-13.414063 68.234375-46.253906 80.195313c-32.835938 11.964843-69.523438-1.382813-87-31.648438l-2.3125-4h-62.796876l-2.3125 4c-17.476562 30.265625-54.164062 43.613281-87 31.648438-32.839843-11.960938-52.34375-45.78125-46.253906-80.195313s36.015625-59.484375 70.964844-59.453125zm0 0"/><path d="m200 272h48v16h-48zm0 0"/><path d="m216 56h16v16h-16zm0 0"/></svg>